<?xml version="1.0" encoding="iso-8859-1"?>
<!-- Generator: Adobe Illustrator 19.0.0, SVG Export Plug-In . SVG Version: 6.00 Build 0)  -->
<svg version="1.1" id="Layer_1" xmlns="http://www.w3.org/2000/svg" xmlns:xlink="http://www.w3.org/1999/xlink" x="0px" y="0px"
	 viewBox="0 0 511.999 511.999" style="enable-background:new 0 0 511.999 511.999;" xml:space="preserve">
<g>
	<g>
		<g>
			<path style="fill:#fff;" d="M221.47,216.534H94.629c-10.748,0-19.462,8.714-19.462,19.462
				c0,10.748,8.714,19.462,19.462,19.462h126.84c10.748,0,19.462-8.714,19.462-19.462
				C240.932,225.246,232.218,216.534,221.47,216.534z"/>
			<path style="fill:#fff;" d="M221.47,264.841H94.629c-10.748,0-19.462,8.714-19.462,19.462
				c0,10.748,8.714,19.462,19.462,19.462h126.84c10.748,0,19.462-8.714,19.462-19.462
				C240.932,273.555,232.218,264.841,221.47,264.841z"/>
			<path style="fill:#fff;" d="M221.47,313.149H94.629c-10.748,0-19.462,8.714-19.462,19.462s8.714,19.462,19.462,19.462h126.84
				c10.748,0,19.462-8.714,19.462-19.462S232.218,313.149,221.47,313.149z"/>
			<path style="fill:#fff;" d="M446.106,0H261.79c-36.02,0-65.325,29.303-65.325,65.323v78.398H65.893
				c-36.019,0-65.323,29.31-65.323,65.336v150.493c0,36.02,29.305,65.323,65.323,65.323h24.639l-5.565,66.007
				c-1.425,16.918,18.041,27.349,31.348,16.993l106.629-83h27.266c36.02,0,65.325-29.303,65.325-65.323v-57.786l80.148,62.387
				c13.286,10.342,32.779,0,31.348-16.993l-5.565-66.007h24.639c36.019,0,65.323-29.303,65.323-65.323V65.322
				C511.429,29.303,482.125,0,446.106,0z M276.612,359.551c0,14.556-11.843,26.4-26.401,26.4h-33.948
				c-4.331,0-8.537,1.444-11.955,4.104L127.49,449.85l3.608-42.803c0.956-11.344-8.003-21.097-19.393-21.097H65.893
				c-14.556,0-26.399-11.843-26.399-26.399V209.058c0-14.564,11.843-26.412,26.399-26.412c8.893,0,175.463,0,184.318,0
				c14.558,0,26.401,11.848,26.401,26.412C276.612,225.272,276.612,342.992,276.612,359.551z M472.505,215.829L472.505,215.829
				c0,14.556-11.843,26.399-26.4,26.399h-45.812c-11.384,0-20.351,9.747-19.393,21.097l3.608,42.803l-68.974-53.69v-43.381
				c0-36.027-29.305-65.336-65.325-65.336h-14.822V65.323c0-14.558,11.843-26.4,26.401-26.4h184.318c14.556,0,26.4,11.842,26.4,26.4
				V215.829z"/>
			<path style="fill:#fff;" d="M417.37,72.806H290.53c-10.748,0-19.462,8.714-19.462,19.462c0,10.748,8.714,19.462,19.462,19.462
				h126.84c10.748,0,19.462-8.714,19.462-19.462C436.832,81.52,428.118,72.806,417.37,72.806z"/>
			<path style="fill:#fff;" d="M417.37,121.114H313.166c-10.748,0-19.462,8.714-19.462,19.462
				c0,10.748,8.714,19.462,19.462,19.462H417.37c10.748,0,19.462-8.714,19.462-19.462
				C436.832,129.828,428.118,121.114,417.37,121.114z"/>
			<path style="fill:#fff;" d="M417.37,169.423h-72.667c-10.748,0-19.462,8.714-19.462,19.462
				c0,10.748,8.714,19.462,19.462,19.462h72.667c10.748,0,19.462-8.714,19.462-19.462
				C436.832,178.135,428.118,169.423,417.37,169.423z"/>
		</g>
	</g>
</g>
<g>
</g>
<g>
</g>
<g>
</g>
<g>
</g>
<g>
</g>
<g>
</g>
<g>
</g>
<g>
</g>
<g>
</g>
<g>
</g>
<g>
</g>
<g>
</g>
<g>
</g>
<g>
</g>
<g>
</g>
</svg>
