<?xml version="1.0" encoding="iso-8859-1"?>
<!-- Generator: Adobe Illustrator 16.0.0, SVG Export Plug-In . SVG Version: 6.00 Build 0)  -->
<!DOCTYPE svg PUBLIC "-//W3C//DTD SVG 1.1//EN" "http://www.w3.org/Graphics/SVG/1.1/DTD/svg11.dtd">
<svg version="1.1" id="Capa_1" xmlns="http://www.w3.org/2000/svg" xmlns:xlink="http://www.w3.org/1999/xlink" x="0px" y="0px"
	 width="31.418px" height="31.418px" viewBox="0 0 31.418 31.418" style="enable-background:new 0 0 31.418 31.418; fill:#fff"
	 xml:space="preserve">
<g>
	<g>
		<polygon points="7.876,11.746 9.472,11.746 9.472,9.07 12.147,9.07 12.147,7.475 9.472,7.475 9.472,4.798 7.876,4.798
			7.876,7.475 5.2,7.475 5.2,9.07 7.876,9.07 		"/>
		<polygon points="22.736,17.357 24.628,19.25 25.756,18.121 23.863,16.229 25.756,14.337 24.628,13.208 22.736,15.101
			20.843,13.208 19.715,14.336 21.607,16.229 19.715,18.121 20.843,19.25 		"/>
		<rect x="5.2" y="15.714" width="6.948" height="1.597"/>
		<rect x="19.715" y="4.798" width="6.948" height="1.595"/>
		<rect x="19.715" y="7.801" width="6.948" height="1.595"/>
		<path d="M31.417,1.211H0v21.036h11.45l-3.945,7.96h3.043l1.351-2.744h7.052l1.352,2.744h3.076l-3.975-7.96h12.014L31.417,1.211
			L31.417,1.211z M12.9,25.434l1.57-3.187h1.909l1.57,3.187H12.9z M30.062,20.895H1.354V2.564h28.71v18.331H30.062z"/>
	</g>
</g>
<g>
</g>
<g>
</g>
<g>
</g>
<g>
</g>
<g>
</g>
<g>
</g>
<g>
</g>
<g>
</g>
<g>
</g>
<g>
</g>
<g>
</g>
<g>
</g>
<g>
</g>
<g>
</g>
<g>
</g>
</svg>
